<?xml version="1.0" encoding="UTF-8" standalone="no"?>
<!DOCTYPE svg PUBLIC "-//W3C//DTD SVG 1.1//EN"
"http://www.w3.org/Graphics/SVG/1.1/DTD/svg11.dtd">


<!-- Page 1 -->
<svg x="0" y="0" width="763" height="763" version="1.1" xmlns="http://www.w3.org/2000/svg" xmlns:xlink="http://www.w3.org/1999/xlink"
style="display: block;margin-left: auto;margin-right: auto;">
<defs>

<style type="text/css"><![CDATA[

.g1_1{
fill: #9e9e9e;
}


]]></style>

</defs>
<path d="M0,0
L0,763
L763,763
L763,0 Z " 
fill="#FFFFFF" stroke="none" />
<path d="M198.5,346.3l0,64.3l48.1,-32.2Z" class="g1_1" />
<path d="M364.4,299.6l0,-89.5L213.9,310.4l67.2,44.9Z" class="g1_1" />
<path d="M553.3,310.4L402.8,210.1l0,89.5L486,355.3Z" class="g1_1" />
<path d="M213.9,446.5L364.4,546.8l0,-89.6L281.1,401.5Z" class="g1_1" />
<path d="M402.8,457.2l0,89.6L553.3,446.5L486,401.5Z" class="g1_1" />
<path d="M383.6,333l-67.9,45.4l67.9,45.5l67.9,-45.5Z" class="g1_1" />
<path d="M607,446.5c0,0.9,0,1.7,-0.1,2.5c-0.1,0.3,-0.1,0.6,-0.2,0.9c-0.1,0.5,-0.2,1,-0.3,1.6c-0.1,0.3,-0.2,0.6,-0.3,0.9c-0.2,0.5,-0.3,0.9,-0.5,1.4c-0.1,0.3,-0.3,0.6,-0.4,0.9c-0.3,0.5,-0.5,0.9,-0.7,1.3c-0.2,0.3,-0.4,0.6,-0.5,0.9c-0.3,0.4,-0.6,0.8,-0.9,1.2c-0.2,0.3,-0.4,0.5,-0.6,0.8c-0.3,0.3,-0.6,0.7,-1,1c-0.2,0.3,-0.5,0.5,-0.7,0.8c-0.4,0.3,-0.8,0.6,-1.1,0.9c-0.3,0.2,-0.6,0.4,-0.9,0.7c-0.1,0,-0.2,0.1,-0.3,0.2L394.2,598.7c-3.2,2.1,-6.9,3.2,-10.6,3.2c-3.7,0,-7.4,-1.1,-10.7,-3.2L168.7,462.5c-0.1,-0.1,-0.2,-0.2,-0.3,-0.2c-0.3,-0.3,-0.6,-0.5,-0.9,-0.7c-0.4,-0.3,-0.7,-0.6,-1.1,-0.9c-0.3,-0.3,-0.5,-0.5,-0.8,-0.8c-0.3,-0.3,-0.6,-0.7,-0.9,-1c-0.2,-0.3,-0.5,-0.5,-0.7,-0.8c-0.3,-0.4,-0.5,-0.8,-0.8,-1.2c-0.2,-0.3,-0.4,-0.6,-0.5,-0.9c-0.3,-0.4,-0.5,-0.8,-0.7,-1.3c-0.1,-0.3,-0.3,-0.6,-0.4,-0.9c-0.2,-0.5,-0.4,-0.9,-0.5,-1.4c-0.1,-0.3,-0.2,-0.6,-0.3,-0.9c-0.1,-0.6,-0.2,-1.1,-0.3,-1.6c-0.1,-0.3,-0.2,-0.6,-0.2,-0.9c-0.1,-0.8,-0.2,-1.6,-0.2,-2.5l0,-136.1c0,-0.9,0.1,-1.7,0.2,-2.6c0,-0.2,0.1,-0.5,0.2,-0.8c0.1,-0.5,0.2,-1.1,0.3,-1.6c0.1,-0.3,0.2,-0.6,0.3,-0.9c0.1,-0.5,0.3,-1,0.5,-1.4c0.1,-0.3,0.3,-0.7,0.4,-1c0.2,-0.4,0.4,-0.8,0.7,-1.2c0.1,-0.3,0.3,-0.6,0.5,-0.9c0.3,-0.4,0.5,-0.8,0.8,-1.2c0.2,-0.3,0.5,-0.6,0.7,-0.8c0.3,-0.4,0.6,-0.7,0.9,-1.1c0.3,-0.2,0.5,-0.5,0.8,-0.7c0.4,-0.3,0.7,-0.6,1.1,-0.9c0.3,-0.3,0.6,-0.5,0.9,-0.7c0.1,-0.1,0.2,-0.2,0.3,-0.2L372.9,158.2c6.5,-4.3,14.9,-4.3,21.3,0L598.5,294.4c0.1,0,0.2,0.1,0.3,0.2c0.3,0.2,0.6,0.4,0.9,0.7c0.3,0.3,0.7,0.6,1.1,0.9c0.2,0.2,0.5,0.5,0.7,0.7c0.4,0.4,0.7,0.7,1,1.1c0.2,0.2,0.4,0.5,0.6,0.8c0.3,0.4,0.6,0.8,0.9,1.2c0.1,0.3,0.3,0.6,0.5,0.9c0.2,0.4,0.4,0.8,0.7,1.2c0.1,0.3,0.3,0.7,0.4,1c0.2,0.4,0.3,0.9,0.5,1.4c0.1,0.3,0.2,0.6,0.3,0.9c0.1,0.5,0.2,1.1,0.3,1.6c0.1,0.3,0.1,0.6,0.2,0.8c0.1,0.9,0.1,1.7,0.1,2.6ZM383.6,17C184,17,22.2,178.8,22.2,378.4C22.2,578,184,739.8,383.6,739.8C583.2,739.8,745,578,745,378.4C745,178.8,583.2,17,383.6,17Z" class="g1_1" />
<path d="M568.6,410.6l0,-64.3l-48,32.1Z" class="g1_1" />

<title>Button-Fill-Black Page1</title>
</svg>
