<svg height="138" version="1.1" width="138" xmlns="http://www.w3.org/2000/svg" viewBox="0 0 138 138" style="overflow: hidden; position: relative;"><desc style="-webkit-tap-highlight-color: rgba(0, 0, 0, 0);">Created with Raphaël 2.1.0</desc><defs style="-webkit-tap-highlight-color: rgba(0, 0, 0, 0);"><linearGradient id="59790-_9e9e9e-_9e9e9e" x1="0" y1="1" x2="6.123233995736766e-17" y2="0" gradientTransform="matrix(1,0,0,1,0,0)" style="-webkit-tap-highlight-color: rgba(0, 0, 0, 0);"><stop offset="0%" stop-color="#9e9e9e" style="-webkit-tap-highlight-color: rgba(0, 0, 0, 0);"></stop><stop offset="100%" stop-color="#9e9e9e" style="-webkit-tap-highlight-color: rgba(0, 0, 0, 0);"></stop></linearGradient><linearGradient id="59890-_FFFFFF-_FFFFFF" x1="0" y1="1" x2="6.123233995736766e-17" y2="0" gradientTransform="matrix(1,0,0,1,0,0)" style="-webkit-tap-highlight-color: rgba(0, 0, 0, 0);"><stop offset="0%" stop-color="#ffffff" style="-webkit-tap-highlight-color: rgba(0, 0, 0, 0);"></stop><stop offset="100%" stop-color="#ffffff" style="-webkit-tap-highlight-color: rgba(0, 0, 0, 0);"></stop></linearGradient></defs><circle cx="69" cy="69" r="69" fill="url(#59790-_9e9e9e-_9e9e9e)" stroke="none" opacity="1" fill-opacity="1" style="-webkit-tap-highlight-color: rgba(0, 0, 0, 0); opacity: 1; fill-opacity: 1;"></circle><path fill="url(#59890-_FFFFFF-_FFFFFF)" stroke="none" d="M20.755,1H10.62C9.484,1,8.562,1.921,8.562,3.058V27.443C8.562,28.579,9.482999999999999,29.501,10.62,29.501H20.755C21.891,29.501,22.813,28.579,22.813,27.443V3.058C22.812,1.921,21.891,1,20.755,1ZM14.659,3.264H16.716C16.817,3.264,16.899,3.3449999999999998,16.899,3.444C16.899,3.544,16.817,3.624,16.716,3.624H14.659C14.559000000000001,3.624,14.478000000000002,3.543,14.478000000000002,3.444C14.478,3.344,14.559,3.264,14.659,3.264ZM13.225,3.058C13.424,3.058,13.584,3.2199999999999998,13.584,3.4179999999999997C13.584,3.6159999999999997,13.423,3.7779999999999996,13.225,3.7779999999999996C13.025,3.7779999999999996,12.865,3.6169999999999995,12.865,3.4179999999999997S13.025,3.058,13.225,3.058ZM15.688,28.473C14.892000000000001,28.473,14.248000000000001,27.826999999999998,14.248000000000001,27.035C14.248000000000001,26.236,14.893,25.596,15.688,25.596S17.128,26.242,17.128,27.035S16.483,28.473,15.688,28.473ZM22.041,24.355C22.041,24.525000000000002,21.902,24.664,21.732,24.664H9.642C9.472,24.664,9.334,24.525000000000002,9.334,24.355V6.042C9.334,5.872,9.472,5.733,9.642,5.733H21.732C21.902,5.733,22.041,5.8709999999999996,22.041,6.042V24.355Z" opacity="1" fill-opacity="1" transform="matrix(3.2,0,0,3.2,18.4875,19.4489)" stroke-width="0.3125" style="-webkit-tap-highlight-color: rgba(0, 0, 0, 0); opacity: 1; fill-opacity: 1;"></path></svg>