<svg height="138" version="1.1" width="138" xmlns="http://www.w3.org/2000/svg" viewBox="0 0 138 138" style="overflow: hidden; position: relative;"><desc style="-webkit-tap-highlight-color: rgba(0, 0, 0, 0);">Created with Raphaël 2.1.0</desc><defs style="-webkit-tap-highlight-color: rgba(0, 0, 0, 0);"><linearGradient id="58390-_9e9e9e-_9e9e9e" x1="0" y1="1" x2="6.123233995736766e-17" y2="0" gradientTransform="matrix(1,0,0,1,0,0)" style="-webkit-tap-highlight-color: rgba(0, 0, 0, 0);"><stop offset="0%" stop-color="#9e9e9e" style="-webkit-tap-highlight-color: rgba(0, 0, 0, 0);"></stop><stop offset="100%" stop-color="#9e9e9e" style="-webkit-tap-highlight-color: rgba(0, 0, 0, 0);"></stop></linearGradient><linearGradient id="58490-_FFFFFF-_FFFFFF" x1="0" y1="1" x2="6.123233995736766e-17" y2="0" gradientTransform="matrix(1,0,0,1,0,0)" style="-webkit-tap-highlight-color: rgba(0, 0, 0, 0);"><stop offset="0%" stop-color="#ffffff" style="-webkit-tap-highlight-color: rgba(0, 0, 0, 0);"></stop><stop offset="100%" stop-color="#ffffff" style="-webkit-tap-highlight-color: rgba(0, 0, 0, 0);"></stop></linearGradient></defs><circle cx="69" cy="69" r="69" fill="url(#58390-_9e9e9e-_9e9e9e)" stroke="none" opacity="1" fill-opacity="1" style="-webkit-tap-highlight-color: rgba(0, 0, 0, 0); opacity: 1; fill-opacity: 1;"></circle><path fill="url(#58490-_FFFFFF-_FFFFFF)" stroke="none" d="M27.25,3.125H5.25C4.146,3.125,3.25,4.021,3.25,5.125V27.125C3.25,28.229,4.146,29.125,5.25,29.125H27.25C28.354,29.125,29.25,28.229,29.25,27.125V5.125C29.25,4.021,28.354,3.125,27.25,3.125ZM11.219,26.781H7.218999999999999V12.780999999999999H11.219V26.781ZM9.219,11.281C7.835999999999999,11.281,6.718999999999999,10.162,6.718999999999999,8.781S7.835999999999999,6.281000000000001,9.219,6.281000000000001S11.719,7.4,11.719,8.781S10.602,11.281,9.219,11.281ZM25.219,26.781H21.219V18.281C21.219,17.881,20.816000000000003,17.226,20.532,17.067999999999998C20.157,16.857,19.271,16.839,18.867,17.034L17.219,17.826999999999998V26.781H13.219000000000001V12.780999999999999H17.219V13.395C18.802,12.671999999999999,20.999000000000002,12.743,22.489,13.578999999999999C24.071,14.464999999999998,25.219,16.442999999999998,25.219,18.281V26.781Z" opacity="1" fill-opacity="1" transform="matrix(3.2,0,0,3.2,17.25,17.525)" stroke-width="0.3125" style="-webkit-tap-highlight-color: rgba(0, 0, 0, 0); opacity: 1; fill-opacity: 1;"></path></svg>